<?xml version="1.0" standalone="no"?>
<!DOCTYPE svg PUBLIC "-//W3C//DTD SVG 20010904//EN"
 "http://www.w3.org/TR/2001/REC-SVG-20010904/DTD/svg10.dtd">
<svg version="1.0" xmlns="http://www.w3.org/2000/svg"
 width="100.000000pt" height="38.000000pt" viewBox="0 0 428.000000 198.000000"
 preserveAspectRatio="xMidYMid meet">

<g transform="translate(0.000000,198.000000) scale(0.100000,-0.100000)"
fill="#fff" stroke="none">
<path d="M506 1964 c-25 -25 -20 -71 10 -90 24 -16 26 -16 54 5 41 30 160 31
190 1 11 -11 27 -20 35 -20 23 0 55 37 55 63 0 50 -61 74 -95 37 -15 -16 -31
-20 -87 -20 -55 0 -72 4 -88 20 -24 24 -53 26 -74 4z m50 -35 c10 -17 -13 -36
-27 -22 -12 12 -4 33 11 33 5 0 12 -5 16 -11z m252 -6 c-4 -22 -22 -20 -26 1
-2 10 3 16 13 16 10 0 15 -7 13 -17z"/>
<path d="M587 1845 c-21 -20 -22 -58 -2 -75 13 -11 15 -62 15 -350 0 -324 -1
-338 -20 -355 -38 -34 -16 -95 35 -95 13 0 31 7 39 16 15 14 16 13 16 -7 0
-12 7 -31 17 -41 15 -17 15 -19 0 -36 -21 -23 -22 -56 -1 -76 20 -20 58 -21
74 -1 8 10 30 15 61 15 l49 0 0 -175 0 -174 62 -3 62 -3 -3 -185 c-2 -142 -6
-189 -17 -201 -30 -34 -9 -89 35 -89 30 0 61 27 61 52 0 8 -9 27 -20 41 -18
23 -20 40 -20 226 l0 201 -65 0 -65 0 0 175 0 175 -58 0 c-49 0 -62 4 -81 24
-17 19 -19 25 -8 29 26 10 30 57 8 81 -20 22 -21 33 -21 378 0 342 1 356 20
373 42 38 8 104 -47 91 -33 -8 -39 -8 -79 0 -22 4 -36 1 -47 -11z m53 -40 c0
-8 -7 -15 -15 -15 -8 0 -15 7 -15 15 0 8 7 15 15 15 8 0 15 -7 15 -15z m100 0
c0 -8 -7 -15 -15 -15 -8 0 -15 7 -15 15 0 8 7 15 15 15 8 0 15 -7 15 -15z
m-38 -412 c-3 -289 -7 -361 -18 -373 -12 -12 -14 -12 -14 7 0 11 -7 26 -15 33
-13 11 -15 62 -15 348 0 299 2 337 17 354 14 16 18 17 33 3 15 -13 16 -49 12
-372z m-72 -368 c0 -8 -7 -15 -15 -15 -8 0 -15 7 -15 15 0 8 7 15 15 15 8 0
15 -7 15 -15z m106 -36 c8 -14 -11 -33 -25 -25 -11 7 -4 36 9 36 5 0 12 -5 16
-11z m4 -124 c0 -8 -7 -15 -15 -15 -8 0 -15 7 -15 15 0 8 7 15 15 15 8 0 15
-7 15 -15z m288 -802 c-4 -22 -22 -20 -26 1 -2 10 3 16 13 16 10 0 15 -7 13
-17z"/>
<path d="M560 931 c-14 -28 -12 -57 5 -71 8 -7 15 -23 15 -36 0 -23 0 -23
-142 -26 l-143 -3 -3 -67 -3 -68 -74 0 -75 0 0 -155 0 -155 -50 0 -50 0 0
-110 c0 -97 -2 -112 -20 -130 -24 -24 -25 -48 -4 -78 18 -27 55 -29 77 -4 21
23 22 52 2 78 -10 13 -14 46 -15 112 l0 92 50 0 50 0 0 155 0 155 75 0 75 0 0
70 0 70 125 0 125 0 0 -130 0 -130 -115 0 -115 0 0 -186 c0 -171 -2 -188 -20
-211 -25 -32 -25 -48 0 -73 24 -24 53 -26 74 -4 20 20 21 68 1 84 -12 10 -15
43 -15 181 l0 169 115 0 115 0 0 186 c0 171 2 188 20 211 11 14 20 33 20 43 0
44 -79 68 -100 31z m60 -37 c0 -8 -7 -14 -15 -14 -15 0 -21 21 -9 33 10 9 24
-2 24 -19z m-550 -830 c0 -8 -7 -14 -15 -14 -15 0 -21 21 -9 33 10 9 24 -2 24
-19z m310 -8 c-13 -13 -35 7 -25 24 5 8 11 8 21 -1 10 -8 12 -15 4 -23z"/>
<path d="M740 690 c-26 -26 -25 -58 1 -86 20 -21 20 -29 13 -163 l-7 -141 -88
7 -89 6 0 -99 c0 -87 -2 -102 -20 -117 -11 -9 -20 -26 -20 -37 0 -25 34 -60
58 -60 43 0 70 73 37 100 -11 9 -15 33 -15 91 l0 79 90 0 90 0 0 158 c0 146 2
160 20 177 11 10 20 29 20 42 0 26 -32 63 -55 63 -8 0 -24 -9 -35 -20z m50
-46 c0 -8 -7 -14 -15 -14 -15 0 -21 21 -9 33 10 9 24 -2 24 -19z m-190 -590
c0 -16 -16 -19 -25 -4 -8 13 4 32 16 25 5 -4 9 -13 9 -21z"/>
<path d="M1912 593 c2 -13 14 -19 41 -21 l37 -3 0 -149 0 -149 -42 -3 c-31 -2
-44 -8 -46 -21 -3 -15 7 -17 107 -17 104 0 111 1 111 20 0 17 -7 20 -40 20
l-40 0 0 170 0 170 -66 0 c-57 0 -65 -2 -62 -17z"/>
<path d="M3420 426 c0 -209 -6 -196 89 -196 64 0 93 15 117 63 21 39 21 125 0
165 -27 53 -96 62 -143 19 l-23 -20 0 76 c0 70 -2 77 -20 77 -19 0 -20 -7 -20
-184z m161 18 c21 -25 18 -128 -4 -152 -24 -26 -59 -35 -91 -22 -24 9 -26 14
-26 72 0 54 4 66 27 90 30 32 73 37 94 12z"/>
<path d="M1360 579 c-45 -18 -70 -50 -70 -89 0 -45 24 -69 100 -103 67 -29 84
-48 76 -82 -8 -31 -38 -39 -122 -32 -62 5 -65 4 -62 -16 7 -50 177 -42 218 10
46 58 14 116 -91 167 -57 28 -64 34 -64 61 0 41 34 57 103 49 47 -6 52 -5 52
14 0 30 -85 43 -140 21z"/>
<path d="M2830 405 l0 -175 100 0 c93 0 100 1 100 20 0 18 -7 20 -75 20 l-75
0 0 155 0 155 -25 0 -25 0 0 -175z"/>
<path d="M3744 508 c-4 -6 5 -22 22 -37 16 -14 47 -41 68 -59 44 -38 44 -39
-49 -113 -41 -33 -52 -46 -43 -56 6 -7 13 -13 17 -13 5 0 145 111 174 139 8 8
-155 151 -172 151 -5 0 -13 -5 -17 -12z"/>
<path d="M1681 502 c-89 -15 -132 -152 -73 -231 46 -63 154 -59 199 8 26 39
31 119 10 160 -23 46 -82 73 -136 63z m82 -64 c23 -27 26 -102 5 -141 -14 -27
-57 -40 -89 -27 -66 28 -66 165 0 189 33 12 61 5 84 -21z"/>
<path d="M2285 505 c-5 -2 -22 -6 -37 -9 -19 -4 -28 -13 -28 -26 0 -17 4 -19
28 -13 72 18 122 1 122 -42 0 -20 -6 -23 -61 -28 -76 -7 -109 -33 -109 -87 0
-41 20 -65 61 -75 22 -6 56 4 112 33 4 2 7 -3 7 -12 0 -9 8 -16 20 -16 19 0
20 7 20 108 0 123 -9 145 -68 162 -38 10 -49 11 -67 5z m83 -182 c-4 -38 -60
-70 -94 -55 -26 13 -33 49 -12 70 7 7 34 12 61 12 47 0 48 -1 45 -27z"/>
<path d="M2613 494 c-18 -9 -33 -20 -33 -25 0 -5 -4 -9 -10 -9 -5 0 -10 9 -10
20 0 13 -7 20 -20 20 -19 0 -20 -7 -20 -135 l0 -135 25 0 c24 0 24 1 27 97 l3
97 33 22 c41 28 71 21 79 -17 4 -23 11 -29 31 -29 22 0 24 3 18 32 -12 63 -67
90 -123 62z"/>
<path d="M3195 505 c-5 -2 -22 -6 -37 -9 -19 -4 -28 -13 -28 -26 0 -17 4 -19
28 -13 73 18 122 1 122 -43 0 -22 -4 -24 -44 -24 -84 0 -126 -30 -126 -89 0
-68 64 -98 133 -62 32 16 39 17 44 5 3 -8 14 -14 24 -14 17 0 19 9 19 99 0
107 -9 144 -37 160 -22 11 -84 22 -98 16z m85 -180 c0 -48 -89 -79 -116 -40
-12 18 -12 24 2 43 12 18 25 22 65 22 46 0 49 -2 49 -25z"/>
<path d="M3980 140 c0 -19 7 -20 150 -20 143 0 150 1 150 20 0 19 -7 20 -150
20 -143 0 -150 -1 -150 -20z"/>
</g>
</svg>
